<?xml version="1.0" standalone="no"?>
<!DOCTYPE svg PUBLIC "-//W3C//DTD SVG 20010904//EN"
 "http://www.w3.org/TR/2001/REC-SVG-20010904/DTD/svg10.dtd">
<svg version="1.0" xmlns="http://www.w3.org/2000/svg"
 width="300.000000pt" height="270.000000pt" viewBox="0 0 300.000000 270.000000"
 preserveAspectRatio="xMidYMid meet">
<metadata>
Created by potrace 1.10, written by Peter Selinger 2001-2011
</metadata>
<g transform="translate(0.000000,270.000000) scale(0.100000,-0.100000)"
fill="#ea9999" stroke="none">
<path d="M1612 2457 c-76 -24 -156 -127 -196 -252 -32 -101 -54 -270 -81 -615
-19 -247 -40 -411 -66 -523 -17 -73 -24 -88 -38 -83 -9 3 -61 21 -116 40 -173
60 -376 71 -558 30 -299 -68 -415 -274 -254 -451 93 -101 275 -163 485 -163
183 0 323 43 434 133 32 26 60 47 63 47 3 0 60 -39 128 -86 132 -93 251 -157
362 -195 60 -21 88 -24 205 -24 146 0 241 20 339 69 48 25 111 86 111 108 0 7
12 22 28 34 38 31 22 39 -38 19 -28 -9 -90 -20 -138 -25 -173 -16 -332 21
-497 117 -110 64 -355 232 -355 244 0 6 11 54 24 107 47 188 65 406 66 787 1
419 31 557 127 581 63 16 129 -50 164 -168 19 -61 21 -86 16 -182 -4 -61 -14
-138 -22 -171 -9 -32 -14 -72 -11 -88 3 -17 1 -36 -5 -43 -6 -7 -9 -18 -7 -25
6 -19 68 40 110 105 59 92 90 201 92 321 2 231 -100 367 -273 364 -36 -1 -81
-6 -99 -12z m-886 -1507 c95 -24 210 -78 323 -153 l84 -55 -50 -50 c-99 -99
-213 -137 -389 -130 -124 5 -197 27 -272 81 -157 112 -139 264 38 311 78 21
174 19 266 -4z"/>
</g>
</svg>
