<?xml version="1.0" standalone="no"?>
<!DOCTYPE svg PUBLIC "-//W3C//DTD SVG 20010904//EN"
 "http://www.w3.org/TR/2001/REC-SVG-20010904/DTD/svg10.dtd">
<svg version="1.0" xmlns="http://www.w3.org/2000/svg"
 width="567.000000pt" height="1278.000000pt" viewBox="0 0 567.000000 1278.000000"
 preserveAspectRatio="xMidYMid meet">
<metadata>
Created by potrace 1.10, written by Peter Selinger 2001-2011
</metadata>
<g transform="translate(0.000000,1278.000000) scale(0.100000,-0.100000)"
fill="#000000" stroke="none">
<path d="M2270 11800 c-12 -12 -20 -33 -20 -54 0 -18 -2 -242 -5 -497 -11
-1024 -15 -1635 -21 -3219 l-7 -1655 22 -43 c14 -27 39 -54 69 -73 45 -29 50
-30 132 -26 102 6 183 30 203 60 10 16 17 83 26 232 6 116 16 262 21 325 24
280 53 588 70 750 18 159 32 298 45 435 5 55 12 114 50 440 15 121 32 281 40
355 8 74 22 196 33 270 11 74 23 171 26 215 3 44 13 132 21 195 30 227 57 457
70 595 7 77 18 169 23 205 12 74 26 221 24 233 -1 4 7 71 18 147 11 77 23 190
26 253 l6 113 -51 64 c-111 139 -476 492 -620 600 -18 14 -46 35 -61 48 -28
22 -90 52 -110 52 -5 0 -19 -9 -30 -20z"/>
<path d="M2230 5662 c-36 -15 -83 -39 -105 -53 -73 -48 -173 -163 -190 -220
-4 -13 -13 -31 -20 -39 -19 -22 -65 -217 -65 -275 0 -27 5 -68 11 -90 5 -22
14 -56 19 -76 34 -132 167 -253 325 -295 79 -21 232 -28 300 -14 171 35 307
166 366 353 19 59 23 94 23 192 -1 104 -4 130 -27 194 -57 159 -140 251 -284
318 -50 23 -74 27 -173 30 -107 3 -119 1 -180 -25z"/>
</g>
</svg>
