<?xml version="1.0" standalone="no"?>
<!DOCTYPE svg PUBLIC "-//W3C//DTD SVG 20010904//EN"
 "http://www.w3.org/TR/2001/REC-SVG-20010904/DTD/svg10.dtd">
<svg version="1.0" xmlns="http://www.w3.org/2000/svg"
 width="1548.000000pt" height="426.000000pt" viewBox="0 0 1548.000000 426.000000"
 preserveAspectRatio="xMidYMid meet">
<metadata>
Created by potrace 1.16, written by Peter Selinger 2001-2019
</metadata>
<g transform="translate(0.000000,426.000000) scale(0.100000,-0.100000)"
fill="#000000" stroke="none">
<path d="M14335 3928 c-2 -7 -6 -417 -10 -910 -6 -894 -6 -897 15 -918 21 -21
63 -26 103 -11 23 9 25 15 31 113 9 132 41 455 67 673 39 330 77 662 85 755
l6 65 -98 97 c-138 136 -188 170 -199 136z"/>
<path d="M4865 3878 c-6 -19 -43 -458 -65 -783 -5 -77 -12 -160 -15 -185 -3
-25 -10 -112 -15 -195 -6 -82 -12 -175 -15 -205 -3 -30 -10 -118 -15 -195 -6
-77 -17 -237 -26 -355 -22 -300 -30 -438 -26 -450 4 -11 177 -120 192 -120 15
0 19 33 24 235 5 215 21 303 80 450 43 107 165 332 183 339 10 4 12 -41 7
-247 -9 -335 10 -462 86 -595 76 -133 236 -136 365 -7 69 68 100 133 100 210
0 80 -17 79 -67 -5 -55 -93 -117 -150 -162 -150 -76 0 -101 92 -98 360 1 96 4
195 7 220 8 66 25 235 32 310 6 76 -4 92 -77 110 -102 26 -102 26 -152 -29
-50 -55 -125 -176 -216 -345 -32 -61 -64 -112 -70 -114 -8 -2 -12 10 -12 35 0
128 73 897 129 1363 22 184 21 187 -72 280 -72 71 -95 87 -102 68z"/>
<path d="M2877 3844 c-72 -17 -108 -36 -158 -81 -141 -127 -207 -396 -249
-1008 -27 -402 -57 -630 -110 -825 -13 -47 -21 -48 -98 -16 -161 67 -313 96
-510 97 -312 0 -539 -72 -668 -213 -44 -48 -84 -139 -84 -192 0 -41 26 -120
56 -167 77 -123 265 -220 493 -254 324 -47 609 18 793 183 59 54 32 63 235
-79 227 -159 380 -234 548 -270 158 -33 367 -19 532 36 139 47 206 94 242 169
12 23 34 52 51 64 16 13 30 27 30 33 0 13 -10 11 -120 -22 -65 -19 -99 -22
-245 -23 -146 0 -181 3 -249 23 -102 28 -201 71 -301 128 -72 41 -426 275
-466 308 -15 12 -15 20 8 96 71 244 97 542 102 1174 3 473 35 624 144 685 54
31 94 21 145 -34 133 -144 156 -366 72 -695 -8 -33 -8 -52 0 -72 10 -22 8 -32
-6 -53 -44 -68 42 -23 98 51 51 67 114 202 138 298 27 103 29 288 5 371 -25
88 -62 157 -108 204 -50 50 -93 74 -165 89 -65 14 -82 13 -155 -5z m-1257
-1989 c39 -8 94 -22 122 -32 126 -41 438 -222 438 -254 0 -15 -84 -105 -127
-134 -106 -73 -224 -105 -388 -105 -292 -1 -488 106 -545 297 -11 36 -10 48 4
85 22 53 39 73 92 104 85 50 268 68 404 39z"/>
<path d="M10676 3789 c-429 -55 -953 -632 -1091 -1202 -24 -101 -22 -256 4
-331 32 -90 68 -145 107 -163 53 -26 63 -7 33 59 -21 46 -24 68 -24 173 1 99
5 137 27 215 47 171 128 335 267 544 63 95 225 291 273 330 12 11 48 40 78 66
149 126 288 197 423 216 144 20 166 -136 88 -646 -6 -36 -20 -126 -31 -200
-71 -460 -83 -582 -84 -805 -1 -258 30 -401 107 -499 43 -55 63 -71 124 -101
44 -21 66 -25 145 -25 143 1 233 43 360 173 143 145 271 378 399 727 28 74 55
148 62 163 10 22 12 -34 12 -290 0 -270 3 -332 18 -408 43 -206 112 -337 207
-385 120 -61 321 -14 449 107 30 29 57 53 58 53 6 0 3 -109 -7 -214 -10 -118
-25 -293 -40 -466 -13 -160 -20 -232 -26 -266 -4 -26 3 -41 34 -81 46 -57 98
-103 118 -103 30 0 42 44 48 185 3 77 13 298 21 490 8 193 17 383 21 424 l6
73 41 -40 c59 -56 83 -66 157 -66 102 0 174 46 256 159 107 150 166 359 166
584 1 179 -33 296 -108 380 -48 53 -89 72 -158 73 -91 2 -212 -84 -273 -192
-15 -28 -31 -50 -35 -50 -4 0 -9 39 -10 86 l-3 86 -35 19 c-71 38 -124 59
-132 51 -4 -4 -8 -120 -9 -257 -2 -138 -7 -362 -12 -500 -10 -284 -7 -274
-101 -320 -125 -61 -239 -38 -300 59 -31 48 -49 101 -78 226 -23 97 -17 615
10 850 28 243 40 339 45 365 3 11 8 45 12 75 4 30 17 120 30 200 39 244 39
237 17 249 -18 10 -127 0 -166 -15 -33 -13 -49 -65 -91 -299 -121 -670 -355
-1312 -569 -1561 -20 -23 -62 -59 -93 -80 -54 -36 -63 -39 -130 -39 -69 0 -74
2 -108 35 -141 135 -148 509 -24 1400 63 454 -40 673 -331 709 -47 6 -85 10
-85 10 0 -1 -31 -6 -69 -10z m2516 -1366 c12 -10 32 -43 46 -73 24 -52 26 -65
26 -215 1 -125 -3 -176 -18 -235 -39 -154 -109 -266 -183 -291 -53 -17 -107 2
-138 50 -32 48 -56 160 -49 231 2 30 9 111 13 180 10 147 33 217 95 292 52 65
98 91 149 84 21 -2 48 -13 59 -23z"/>
<path d="M5902 3407 c-6 -6 -15 -48 -22 -92 -6 -44 -23 -154 -39 -245 l-27
-165 -70 -3 c-79 -3 -247 21 -302 43 -34 15 -38 15 -49 -1 -27 -36 -8 -150 30
-192 46 -50 72 -57 220 -55 101 1 137 -2 137 -11 0 -7 -9 -102 -21 -212 -14
-137 -21 -269 -21 -424 0 -209 2 -232 26 -330 18 -71 36 -119 58 -152 82 -120
221 -113 302 16 38 59 63 124 72 184 10 66 -19 56 -52 -18 -66 -147 -189 -176
-223 -53 -15 51 -14 121 4 358 17 223 34 368 66 551 l22 123 51 10 c297 57
438 87 531 110 96 25 112 32 127 57 10 16 27 36 39 45 12 9 19 21 15 28 -12
18 -103 13 -324 -19 -215 -31 -373 -48 -389 -43 -6 2 8 91 31 203 31 152 38
204 30 218 -6 9 -53 31 -105 49 -110 38 -104 36 -117 20z"/>
<path d="M3492 3373 c-110 -54 -154 -257 -71 -327 85 -72 196 -17 250 124 10
27 19 67 19 88 -1 48 -28 103 -60 119 -35 18 -99 16 -138 -4z"/>
<path d="M7938 2741 c-32 -25 -106 -146 -150 -246 -54 -120 -64 -146 -133
-330 -81 -218 -76 -205 -87 -205 -6 0 -7 19 -4 48 11 89 10 546 -2 572 -24 54
-52 74 -117 84 -35 6 -45 3 -77 -24 -22 -18 -53 -62 -78 -112 -40 -80 -130
-328 -130 -360 0 -9 -5 -20 -11 -24 -8 -5 -9 19 -4 87 21 250 2 361 -71 418
-37 29 -118 28 -182 -1 -91 -42 -250 -237 -225 -276 5 -10 23 -18 39 -20 26
-2 33 4 61 51 37 61 104 133 135 143 49 15 69 -56 61 -231 -4 -110 -31 -342
-59 -510 -8 -49 -17 -118 -21 -152 l-6 -63 40 -40 c40 -39 61 -46 123 -41 48
4 61 30 81 167 42 296 110 568 171 690 38 77 62 91 79 47 11 -28 6 -553 -7
-775 l-6 -98 27 -10 c14 -5 55 -10 91 -10 77 0 61 -30 150 284 71 252 127 427
149 466 13 22 14 9 15 -130 1 -331 58 -518 173 -571 103 -46 219 0 297 119 15
23 15 23 57 -41 64 -97 141 -147 253 -164 188 -29 345 76 415 276 35 100 13
266 -41 312 -51 44 -120 27 -93 -23 22 -40 16 -204 -9 -269 -76 -194 -268
-231 -345 -67 -14 29 -32 88 -40 132 -17 91 -26 75 98 165 191 138 313 329
317 494 3 128 -36 199 -127 234 -102 39 -250 -20 -341 -136 -146 -184 -217
-499 -169 -747 17 -89 15 -92 -51 -125 -38 -18 -49 -19 -74 -9 -35 14 -52 40
-83 117 -20 54 -22 73 -21 268 1 215 13 308 59 450 9 28 20 62 25 78 7 22 4
33 -17 57 -21 25 -89 70 -106 70 -2 0 -15 -9 -29 -19z m764 -186 c33 -74 -92
-344 -216 -464 -48 -46 -52 -31 -31 106 19 121 50 221 89 287 51 87 133 125
158 71z"/>
<path d="M4049 2716 c-125 -44 -233 -176 -298 -363 -42 -120 -62 -257 -60
-403 3 -147 4 -145 -65 -234 -37 -48 -102 -96 -131 -96 -12 0 -30 9 -41 21
-16 18 -19 39 -21 148 -2 177 4 224 94 739 11 64 13 96 6 103 -9 9 -105 1
-199 -17 -24 -4 -37 -32 -53 -114 -70 -364 -80 -713 -24 -870 47 -130 148
-182 258 -131 53 24 130 109 161 176 26 57 44 77 44 50 0 -8 14 -45 32 -81 64
-131 186 -194 291 -150 64 26 149 136 219 281 l28 60 -5 -195 c-11 -402 -71
-743 -168 -962 -73 -163 -197 -282 -332 -317 -55 -15 -129 -14 -168 2 -73 31
-152 145 -164 237 -7 49 -35 79 -58 60 -31 -26 -9 -151 42 -239 85 -146 228
-228 382 -219 231 15 387 150 492 428 61 162 112 436 144 775 63 667 79 801
121 985 28 123 28 139 8 161 -30 33 -71 50 -156 65 -65 11 -87 20 -123 50 -72
59 -175 79 -256 50z m258 -217 c39 -24 38 -23 14 -159 -49 -263 -84 -386 -149
-520 -47 -96 -132 -185 -187 -196 -47 -9 -64 1 -90 52 -17 34 -20 58 -20 179
1 193 32 338 108 492 33 68 94 145 131 165 56 30 131 25 193 -13z"/>
<path d="M14315 1886 c-69 -31 -121 -128 -112 -208 10 -83 56 -128 145 -142
122 -18 214 78 199 207 -15 119 -128 189 -232 143z"/>
</g>
</svg>
