<?xml version="1.0" standalone="no"?>
<!DOCTYPE svg PUBLIC "-//W3C//DTD SVG 20010904//EN"
 "http://www.w3.org/TR/2001/REC-SVG-20010904/DTD/svg10.dtd">
<svg version="1.0" xmlns="http://www.w3.org/2000/svg"
 width="1350.000000pt" height="417.000000pt" viewBox="0 0 1350.000000 417.000000"
 preserveAspectRatio="xMidYMid meet">
<metadata>
Created by potrace 1.10, written by Peter Selinger 2001-2011
</metadata>
<g transform="translate(0.000000,417.000000) scale(0.100000,-0.100000)"
fill="#000000" stroke="none">
<path d="M4760 3776 c-12 -16 -20 -87 -45 -416 -17 -221 -38 -495 -56 -710 -6
-74 -14 -198 -19 -275 -5 -77 -13 -196 -19 -265 -26 -309 -41 -520 -41 -582 0
-65 1 -67 38 -95 77 -58 135 -88 156 -80 14 6 16 31 16 185 0 181 13 280 55
417 31 101 188 400 205 390 5 -3 8 -137 7 -298 -1 -267 1 -299 20 -367 54
-195 135 -274 262 -255 52 8 135 59 181 112 33 37 80 133 80 164 0 10 4 21 10
24 9 6 13 -6 24 -73 8 -47 54 -139 85 -171 34 -34 92 -55 132 -47 91 18 191
154 201 272 5 60 -23 56 -47 -7 -22 -56 -76 -116 -112 -125 -38 -10 -72 5 -94
39 -19 30 -20 43 -15 227 4 191 11 269 42 500 13 99 41 272 49 306 2 6 43 18
92 28 48 9 124 24 168 32 236 46 425 97 425 114 0 3 14 21 31 38 26 27 29 35
19 47 -14 17 -49 19 -134 5 -324 -50 -520 -75 -540 -67 -13 5 -16 15 -11 44 8
48 31 159 51 244 21 87 16 127 -16 144 -24 12 -158 55 -172 55 -19 0 -38 -36
-38 -70 0 -21 -6 -71 -14 -111 -8 -41 -21 -119 -31 -174 -9 -55 -19 -111 -21
-124 l-5 -24 -132 7 c-88 4 -153 13 -196 26 -86 27 -96 19 -88 -72 7 -76 24
-108 76 -140 33 -21 48 -23 171 -23 l135 0 -1 -35 c-1 -35 -13 -165 -35 -400
-6 -69 -9 -187 -7 -263 5 -137 5 -139 -18 -147 -12 -5 -45 -44 -73 -87 -74
-115 -142 -151 -188 -100 -38 42 -48 109 -48 317 0 179 7 275 36 497 13 100 3
120 -68 141 -81 23 -106 24 -128 5 -52 -46 -128 -163 -222 -341 -81 -154 -93
-165 -93 -84 0 139 73 913 127 1343 14 117 14 128 -2 158 -19 38 -86 114 -126
142 -23 16 -28 17 -39 5z"/>
<path d="M2860 3763 c-147 -20 -243 -95 -314 -247 -67 -143 -105 -375 -141
-871 -25 -343 -50 -536 -93 -720 -8 -38 -20 -75 -25 -82 -9 -12 -7 -13 -136
36 -173 65 -378 91 -573 72 -251 -24 -421 -89 -520 -199 -61 -67 -78 -111 -78
-195 0 -98 25 -154 104 -232 128 -127 344 -195 617 -195 239 0 424 57 551 170
85 75 84 74 148 25 75 -58 229 -165 237 -165 4 0 14 -6 22 -14 20 -18 167 -96
201 -107 14 -4 50 -17 80 -29 127 -48 288 -61 451 -35 232 37 357 99 415 205
15 28 38 57 50 65 13 9 24 20 24 25 0 13 -36 13 -61 -1 -34 -18 -190 -41 -289
-42 -181 -3 -339 42 -535 152 -101 57 -463 301 -469 316 -3 9 -2 25 3 38 15
37 39 137 55 227 35 192 46 350 51 720 6 429 20 669 42 755 29 110 96 185 167
185 37 0 114 -79 147 -150 39 -82 62 -216 54 -303 -9 -99 -33 -234 -44 -256
-11 -19 -12 -181 -2 -181 12 0 61 51 99 103 171 232 196 597 55 800 -58 83
-193 143 -293 130z m-1293 -1963 c54 -11 118 -27 143 -35 132 -47 410 -213
410 -246 0 -20 -46 -71 -106 -117 -184 -140 -478 -162 -717 -54 -141 64 -238
203 -209 300 25 81 90 128 218 156 95 20 146 19 261 -4z"/>
<path d="M10405 3691 c-102 -23 -169 -49 -258 -102 -359 -210 -690 -680 -778
-1102 -23 -110 -24 -172 -3 -251 32 -121 87 -206 135 -206 33 0 37 15 15 58
-26 53 -36 169 -20 267 27 182 88 335 217 550 132 220 293 404 473 539 106 80
226 139 320 156 98 18 125 4 148 -78 28 -102 19 -217 -59 -727 -8 -49 -21
-137 -29 -195 -9 -58 -23 -157 -33 -220 -25 -172 -25 -610 0 -700 59 -210 167
-307 343 -309 69 -1 149 19 205 50 198 112 377 387 541 834 16 44 34 95 39
113 23 75 29 24 29 -235 0 -340 22 -487 96 -638 33 -67 110 -140 162 -155 123
-34 283 11 395 111 30 27 57 45 61 42 15 -15 6 -164 -39 -633 -8 -85 -17 -191
-20 -236 l-6 -81 39 -49 c69 -87 101 -105 132 -74 16 16 20 34 20 98 0 42 5
136 10 207 5 72 14 267 20 435 11 316 15 370 32 370 5 0 27 -15 49 -33 74 -64
178 -66 275 -4 155 97 274 395 274 685 0 237 -73 393 -204 436 -102 34 -233
-34 -316 -165 -18 -27 -36 -49 -41 -49 -5 0 -9 31 -9 69 0 86 1 84 -122 141
-58 27 -58 28 -58 -287 0 -281 -14 -666 -25 -694 -9 -23 -96 -76 -148 -89
-136 -36 -237 36 -283 202 -21 80 -44 289 -44 418 -1 271 55 803 126 1195 19
110 19 194 -2 202 -28 11 -146 -15 -168 -36 -20 -20 -41 -83 -52 -151 -2 -19
-11 -66 -19 -105 -7 -38 -21 -108 -30 -155 -9 -47 -23 -112 -31 -145 -9 -33
-22 -87 -30 -120 -45 -181 -119 -420 -188 -610 -78 -215 -201 -437 -300 -543
-75 -80 -169 -120 -239 -101 -172 46 -217 370 -141 1014 15 128 27 220 60 464
40 296 -26 505 -186 586 -48 24 -179 56 -227 54 -15 0 -64 -9 -108 -18z m2471
-1317 c70 -34 104 -133 104 -308 0 -235 -76 -443 -180 -496 -22 -11 -49 -20
-61 -20 -36 0 -86 38 -108 83 -42 86 -45 129 -26 333 16 178 19 193 52 260 39
82 84 130 139 149 49 18 40 18 80 -1z"/>
<path d="M3415 3291 c-48 -22 -86 -69 -108 -135 -22 -65 -21 -98 3 -146 46
-90 159 -94 223 -8 88 117 87 257 -1 293 -45 19 -68 19 -117 -4z"/>
<path d="M7748 2653 c-39 -43 -63 -82 -112 -179 -49 -98 -69 -146 -130 -311
-8 -21 -22 -58 -31 -83 -26 -68 -43 -113 -49 -132 -3 -10 -10 -18 -16 -18 -7
0 -10 96 -10 286 0 271 -1 288 -20 320 -24 37 -95 70 -133 60 -30 -7 -72 -49
-104 -103 -26 -45 -96 -212 -106 -253 -11 -47 -46 -135 -47 -120 -1 8 -3 92
-4 185 -1 155 -3 174 -23 212 -34 63 -66 83 -132 83 -56 0 -120 -28 -176 -77
-33 -28 -104 -123 -126 -166 -19 -37 -19 -40 -3 -58 29 -32 49 -23 92 45 44
67 113 136 136 136 81 0 74 -241 -23 -849 -8 -49 -7 -71 3 -96 30 -72 153
-103 195 -49 12 15 21 40 21 56 0 30 16 132 46 298 46 251 120 480 169 520 14
11 19 11 33 -4 31 -30 29 -360 -5 -778 l-6 -76 31 -16 c43 -22 134 -21 154 2
9 9 26 53 38 97 12 44 28 100 35 125 7 25 20 74 30 110 27 102 75 261 90 300
8 19 17 45 20 58 7 24 24 30 26 10 1 -7 3 -76 5 -153 6 -328 68 -488 203 -526
78 -22 190 24 233 97 26 43 48 43 72 -1 27 -49 107 -122 163 -147 39 -18 67
-22 148 -23 120 0 169 19 249 100 82 81 122 184 120 305 -2 121 -46 194 -112
188 -33 -3 -37 -6 -34 -28 1 -14 3 -72 4 -130 2 -88 -2 -113 -19 -152 -34 -74
-70 -115 -130 -144 -48 -24 -58 -26 -92 -15 -85 25 -147 128 -153 256 l-3 59
49 36 c156 113 250 214 307 328 79 160 76 306 -8 387 -64 62 -172 67 -273 14
-44 -24 -125 -102 -159 -154 -35 -54 -91 -172 -91 -191 0 -8 -5 -24 -10 -34
-13 -24 -37 -163 -46 -256 -3 -39 -1 -98 6 -134 6 -36 14 -86 17 -111 5 -44 4
-47 -31 -68 -40 -25 -98 -30 -121 -11 -22 18 -53 87 -70 155 -33 130 -13 423
42 615 35 121 36 127 30 152 -7 27 -81 78 -112 78 -12 0 -33 -12 -47 -27z
m757 -218 c0 -62 -5 -80 -44 -160 -48 -98 -65 -124 -129 -202 -64 -78 -76 -72
-68 30 14 158 70 311 139 373 30 27 45 34 70 32 l32 -3 0 -70z"/>
<path d="M3945 2643 c-111 -44 -214 -167 -273 -323 -48 -128 -77 -318 -69
-457 l5 -98 -44 -66 c-48 -73 -97 -116 -142 -125 -24 -5 -33 -1 -51 21 -19 25
-21 40 -21 166 0 153 30 387 76 599 8 36 16 97 17 135 l2 70 -35 -1 c-34 -1
-114 -11 -157 -20 -26 -5 -41 -52 -66 -204 -34 -208 -42 -292 -42 -455 0 -248
32 -364 117 -425 49 -36 102 -39 165 -10 56 25 127 99 155 161 26 56 54 65 64
22 8 -32 25 -61 68 -117 35 -45 114 -86 169 -86 95 0 208 122 278 298 5 12 14
22 20 22 22 0 -1 -405 -37 -640 -77 -504 -242 -756 -514 -786 -48 -6 -63 -3
-107 19 -72 37 -136 125 -149 206 -13 84 -74 110 -74 32 1 -181 158 -362 348
-402 73 -15 205 11 288 57 236 130 353 451 419 1154 8 91 20 215 26 275 6 61
14 155 19 210 12 143 51 388 76 482 35 128 9 162 -148 189 -63 11 -88 21 -121
47 -81 65 -178 84 -262 50z m205 -184 c21 -6 50 -22 66 -34 28 -22 28 -23 16
-74 -7 -29 -12 -64 -12 -78 0 -44 -47 -241 -83 -348 -32 -95 -49 -135 -94
-220 -28 -52 -108 -122 -149 -130 -78 -14 -113 53 -114 216 0 293 117 598 255
660 47 22 65 23 115 8z"/>
</g>
</svg>
