<?xml version="1.0" standalone="no"?>
<!DOCTYPE svg PUBLIC "-//W3C//DTD SVG 20010904//EN"
 "http://www.w3.org/TR/2001/REC-SVG-20010904/DTD/svg10.dtd">
<svg version="1.0" xmlns="http://www.w3.org/2000/svg"
 width="300.000000pt" height="273.000000pt" viewBox="0 0 300.000000 273.000000"
 preserveAspectRatio="xMidYMid meet">
<metadata>
Created by potrace 1.10, written by Peter Selinger 2001-2011
</metadata>
<g transform="translate(0.000000,273.000000) scale(0.050000,-0.050000)"
fill="#000000" stroke="none">
<path d="M4998 4531 c-5 -5 -949 -347 -2099 -760 -2319 -834 -2259 -811 -2259
-877 0 -69 23 -90 364 -321 347 -236 328 -228 420 -175 47 27 2600 1381 2786
1477 88 46 -184 -159 -2034 -1532 l-394 -293 -1 -394 c-1 -507 -20 -493 340
-259 148 96 279 181 291 188 12 8 146 -72 299 -176 282 -193 340 -216 393
-154 49 55 1959 3204 1971 3247 9 35 -49 57 -77 29z"/>
</g>
</svg>
